<svg width="28" height="28" viewBox="0 0 28 28" fill="none" xmlns="http://www.w3.org/2000/svg">
<g clip-path="url(#clip0_230_1313)">
<path d="M14 28C12.0867 28 10.2783 27.6323 8.575 26.8968C6.87167 26.1613 5.3844 25.158 4.1132 23.8868C2.842 22.6156 1.83867 21.1283 1.1032 19.425C0.367733 17.7217 0 15.9133 0 14C0 12.0633 0.367733 10.2494 1.1032 8.5582C1.83867 6.867 2.842 5.38533 4.1132 4.1132C5.3844 2.84107 6.87167 1.83773 8.575 1.1032C10.2783 0.368667 12.0867 0.000933333 14 0C15.9367 0 17.7511 0.367733 19.4432 1.1032C21.1353 1.83867 22.6165 2.842 23.8868 4.1132C25.1571 5.3844 26.1604 6.86607 26.8968 8.5582C27.6332 10.2503 28.0009 12.0643 28 14C28 15.9133 27.6323 17.7217 26.8968 19.425C26.1613 21.1283 25.158 22.6161 23.8868 23.8882C22.6156 25.1603 21.1339 26.1637 19.4418 26.8982C17.7497 27.6327 15.9357 28 14 28ZM14 25.13C14.6067 24.29 15.1317 23.415 15.575 22.505C16.0183 21.595 16.38 20.6267 16.66 19.6H11.34C11.62 20.6267 11.9817 21.595 12.425 22.505C12.8683 23.415 13.3933 24.29 14 25.13ZM10.36 24.57C9.94 23.8 9.57273 23.0006 9.2582 22.1718C8.94367 21.343 8.68093 20.4857 8.47 19.6H4.34C5.01667 20.7667 5.86273 21.7817 6.8782 22.645C7.89367 23.5083 9.05427 24.15 10.36 24.57ZM17.64 24.57C18.9467 24.15 20.1077 23.5083 21.1232 22.645C22.1387 21.7817 22.9843 20.7667 23.66 19.6H19.53C19.32 20.4867 19.0577 21.3444 18.7432 22.1732C18.4287 23.002 18.0609 23.8009 17.64 24.57ZM3.15 16.8H7.91C7.84 16.3333 7.78773 15.8727 7.7532 15.4182C7.71867 14.9637 7.70093 14.4909 7.7 14C7.69907 13.5091 7.7168 13.0368 7.7532 12.5832C7.7896 12.1296 7.84187 11.6685 7.91 11.2H3.15C3.03333 11.6667 2.94607 12.1277 2.8882 12.5832C2.83033 13.0387 2.80093 13.5109 2.8 14C2.79907 14.4891 2.82847 14.9618 2.8882 15.4182C2.94793 15.8746 3.0352 16.3352 3.15 16.8ZM10.71 16.8H17.29C17.36 16.3333 17.4127 15.8727 17.4482 15.4182C17.4837 14.9637 17.5009 14.4909 17.5 14C17.4991 13.5091 17.4813 13.0368 17.4468 12.5832C17.4123 12.1296 17.36 11.6685 17.29 11.2H10.71C10.64 11.6667 10.5877 12.1277 10.5532 12.5832C10.5187 13.0387 10.5009 13.5109 10.5 14C10.4991 14.4891 10.5168 14.9618 10.5532 15.4182C10.5896 15.8746 10.6419 16.3352 10.71 16.8ZM20.09 16.8H24.85C24.9667 16.3333 25.0544 15.8727 25.1132 15.4182C25.172 14.9637 25.2009 14.4909 25.2 14C25.1991 13.5091 25.1701 13.0368 25.1132 12.5832C25.0563 12.1296 24.9685 11.6685 24.85 11.2H20.09C20.16 11.6667 20.2127 12.1277 20.2482 12.5832C20.2837 13.0387 20.3009 13.5109 20.3 14C20.2991 14.4891 20.2813 14.9618 20.2468 15.4182C20.2123 15.8746 20.16 16.3352 20.09 16.8ZM19.53 8.4H23.66C22.9833 7.23333 22.1377 6.21833 21.1232 5.355C20.1087 4.49167 18.9476 3.85 17.64 3.43C18.06 4.2 18.4277 4.9994 18.7432 5.8282C19.0587 6.657 19.3209 7.51427 19.53 8.4ZM11.34 8.4H16.66C16.38 7.37333 16.0183 6.405 15.575 5.495C15.1317 4.585 14.6067 3.71 14 2.87C13.3933 3.71 12.8683 4.585 12.425 5.495C11.9817 6.405 11.62 7.37333 11.34 8.4ZM4.34 8.4H8.47C8.68 7.51333 8.94273 6.6556 9.2582 5.8268C9.57367 4.998 9.94093 4.19907 10.36 3.43C9.05333 3.85 7.89227 4.49167 6.8768 5.355C5.86133 6.21833 5.01573 7.23333 4.34 8.4Z" fill="#202C5B"/>
</g>
<defs>
<clipPath id="clip0_230_1313">
<rect width="28" height="28" fill="white"/>
</clipPath>
</defs>
</svg>
