<svg width="16" height="16" viewBox="0 0 16 16" fill="none" xmlns="http://www.w3.org/2000/svg">
<path d="M13.7012 10.6622L11.6273 10.4255C11.3834 10.3968 11.1363 10.4238 10.9043 10.5044C10.6724 10.585 10.4618 10.7172 10.2882 10.8909L8.78588 12.3932C6.46817 11.2141 4.58424 9.33021 3.40517 7.0125L4.91569 5.50198C5.26678 5.15089 5.43825 4.66099 5.38109 4.16293L5.14431 2.10536C5.09819 1.70698 4.90709 1.3395 4.60743 1.07297C4.30777 0.806445 3.92052 0.659503 3.51948 0.660158H2.10694C1.1843 0.660158 0.416792 1.42767 0.473947 2.35031C0.90669 9.32319 6.48336 14.8917 13.4481 15.3244C14.3707 15.3816 15.1382 14.6141 15.1382 13.6914V12.2789C15.1464 11.4542 14.5259 10.7602 13.7012 10.6622Z" fill="white"/>
</svg>
